<svg width="42" height="42" viewBox="0 0 42 42" fill="none" xmlns="http://www.w3.org/2000/svg">
<path d="M21 41C32.0457 41 41 32.0457 41 21C41 9.9543 32.0457 1 21 1C9.9543 1 1 9.9543 1 21C1 32.0457 9.9543 41 21 41Z" stroke="#262626" stroke-width="2" stroke-linecap="round" stroke-linejoin="round"/>
<path d="M21.0003 1V41M5.92334 34.1385C8.17791 32.7659 10.0414 30.8364 11.3347 28.5354C12.628 26.2345 13.3075 23.6395 13.308 21C13.3075 18.3605 12.628 15.7655 11.3347 13.4646C10.0414 11.1636 8.17791 9.23408 5.92334 7.86154M36.0772 7.86154C33.8234 9.23459 31.9607 11.1643 30.6682 13.4653C29.3757 15.7662 28.6968 18.3609 28.6968 21C28.6968 23.6391 29.3757 26.2338 30.6682 28.5347C31.9607 30.8357 33.8234 32.7654 36.0772 34.1385" stroke="#262626" stroke-width="2" stroke-linecap="round" stroke-linejoin="round"/>
</svg>
