<svg width="42" height="42" viewBox="0 0 42 42" fill="none" xmlns="http://www.w3.org/2000/svg">
<path d="M27.1538 22.551C34.8008 22.551 40.9999 19.7977 40.9999 16.4013C40.9999 13.0049 34.8008 10.2516 27.1538 10.2516C19.5068 10.2516 13.3076 13.0049 13.3076 16.4013C13.3076 19.7977 19.5068 22.551 27.1538 22.551Z" stroke="#262626" stroke-width="2" stroke-linecap="round" stroke-linejoin="round"/>
<path d="M13.3076 16.4012V34.8503C13.3076 38.2327 19.4615 41 27.1538 41C34.8461 41 40.9999 38.2327 40.9999 34.8503V16.4012" stroke="#262626" stroke-width="2" stroke-linecap="round" stroke-linejoin="round"/>
<path d="M41 25.6258C41 29.0081 34.8462 31.7755 27.1538 31.7755C19.4615 31.7755 13.3077 29.0081 13.3077 25.6258M26.8462 4.10183C23.2507 1.88449 19.0656 0.812103 14.8462 1.02699C7.18462 1.02699 1 3.79435 1 7.17668C1 8.99084 2.78462 10.6205 5.61538 11.789" stroke="#262626" stroke-width="2" stroke-linecap="round" stroke-linejoin="round"/>
<path d="M5.61538 30.2381C2.78462 29.0697 1 27.44 1 25.6258V7.17676" stroke="#262626" stroke-width="2" stroke-linecap="round" stroke-linejoin="round"/>
<path d="M5.61538 21.0135C2.78462 19.8451 1 18.2154 1 16.4012" stroke="#262626" stroke-width="2" stroke-linecap="round" stroke-linejoin="round"/>
</svg>
