<svg width="42" height="34" viewBox="0 0 42 34" fill="none" xmlns="http://www.w3.org/2000/svg">
<path d="M6.92867 19.817L1.34628 27.8143C1.09447 28.3047 0.976384 28.8528 1.00391 29.4034C1.03144 29.954 1.20362 30.4876 1.50309 30.9505C1.78557 31.4024 2.17857 31.775 2.64499 32.0329C3.11141 32.2908 3.63587 32.4255 4.16884 32.4245H37.9141C38.4471 32.4255 38.9715 32.2908 39.4379 32.0329C39.9044 31.775 40.2974 31.4024 40.5798 30.9505C40.8551 30.4737 41 29.9329 41 29.3824C41 28.8319 40.8551 28.2911 40.5798 27.8143L35.1543 19.817M6.92867 19.817V4.13617C6.92867 3.30441 7.25909 2.50671 7.84724 1.91856C8.43539 1.33042 9.23308 1 10.0648 1H32.0181C32.8498 1 33.6475 1.33042 34.2357 1.91856C34.8238 2.50671 35.1543 3.30441 35.1543 4.13617V19.817M6.92867 19.817H35.1543" stroke="#262626" stroke-width="2" stroke-linecap="round" stroke-linejoin="round"/>
</svg>
