<svg width="42" height="42" viewBox="0 0 42 42" fill="none" xmlns="http://www.w3.org/2000/svg">
<path d="M37.9231 1H4.07692C2.37759 1 1 2.37759 1 4.07692V37.9231C1 39.6224 2.37759 41 4.07692 41H37.9231C39.6224 41 41 39.6224 41 37.9231V4.07692C41 2.37759 39.6224 1 37.9231 1Z" stroke="#262626" stroke-width="2" stroke-linecap="round" stroke-linejoin="round"/>
<path d="M1 11.7692H41M11.7692 11.7692L16.3846 1M25.6154 11.7692L30.2308 1M16.3538 31.9538V20.1692C16.3624 19.9881 16.4154 19.8119 16.508 19.656C16.6006 19.5002 16.73 19.3694 16.8849 19.2752C17.0399 19.1811 17.2155 19.1263 17.3966 19.1159C17.5776 19.1055 17.7584 19.1396 17.9231 19.2154L28.1385 25.0923C28.3039 25.1942 28.4405 25.3368 28.5352 25.5065C28.63 25.6761 28.6797 25.8672 28.6797 26.0615C28.6797 26.2559 28.63 26.4469 28.5352 26.6166C28.4405 26.7862 28.3039 26.9288 28.1385 27.0308L17.9231 32.9385C17.7555 33.0073 17.5739 33.0352 17.3934 33.0198C17.2129 33.0044 17.0386 32.9461 16.8852 32.8498C16.7317 32.7535 16.6034 32.622 16.511 32.4662C16.4186 32.3103 16.3647 32.1347 16.3538 31.9538Z" stroke="#262626" stroke-width="2" stroke-linecap="round" stroke-linejoin="round"/>
</svg>
