<svg width="42" height="42" viewBox="0 0 42 42" fill="none" xmlns="http://www.w3.org/2000/svg">
<path d="M21 41C32.0457 41 41 32.0457 41 21C41 9.9543 32.0457 1 21 1C9.9543 1 1 9.9543 1 21C1 32.0457 9.9543 41 21 41Z" stroke="#262626" stroke-width="2" stroke-linecap="round" stroke-linejoin="round"/>
<path d="M2.53857 28.692H7.92319C9.35128 28.692 10.7209 28.1247 11.7307 27.1149C12.7405 26.1051 13.3078 24.7355 13.3078 23.3074V18.692C13.3078 17.2639 13.8751 15.8943 14.8849 14.8845C15.8947 13.8747 17.2643 13.3074 18.6924 13.3074C20.1205 13.3074 21.4901 12.7401 22.4999 11.7303C23.5097 10.7205 24.077 9.35087 24.077 7.92278V1.21509M41.0001 20.692C39.4595 19.8926 37.7511 19.4708 36.0155 19.4612H29.4616C28.0336 19.4612 26.664 20.0285 25.6542 21.0384C24.6443 22.0482 24.077 23.4178 24.077 24.8459C24.077 26.2739 24.6443 27.6435 25.6542 28.6534C26.664 29.6632 28.0336 30.2305 29.4616 30.2305C30.4817 30.2305 31.46 30.6357 32.1813 31.357C32.9026 32.0783 33.3078 33.0566 33.3078 34.0766V36.7535" stroke="#262626" stroke-width="2" stroke-linecap="round" stroke-linejoin="round"/>
</svg>
